<?xml version="1.0" encoding="utf-8"?>
<!-- Generator: Adobe Illustrator 22.1.0, SVG Export Plug-In . SVG Version: 6.00 Build 0)  -->
<svg version="1.1" id="Layer_1" xmlns="http://www.w3.org/2000/svg" xmlns:xlink="http://www.w3.org/1999/xlink" x="0px" y="0px"
	 viewBox="0 0 21 19" style="enable-background:new 0 0 21 19;" xml:space="preserve">
<style type="text/css">
	.st0{opacity:0.92;}
	.st1{fill:none;}
	.st2{fill:none;stroke:#383838;}
	.st3{fill:#383838;}
</style>
<g id="Group_91" transform="translate(-640 -569)">
	<g id="Rectangle_73" transform="translate(640 569)" class="st0">
		<path class="st1" d="M5,0h11c2.8,0,5,2.2,5,5v9c0,2.8-2.2,5-5,5H5c-2.8,0-5-2.2-5-5V5C0,2.2,2.2,0,5,0z"/>
		<path class="st2" d="M5,0.5h11c2.5,0,4.5,2,4.5,4.5v9c0,2.5-2,4.5-4.5,4.5H5c-2.5,0-4.5-2-4.5-4.5V5C0.5,2.5,2.5,0.5,5,0.5z"/>
	</g>
	<g id="Group_83" transform="translate(690.203 609.722) rotate(180)" class="st0">
		<g id="Group_82" transform="translate(36.5 26.5)">
			<path id="Path_55" class="st3" d="M5.2,1.2c0.3-0.3,0.3-0.7,0-1c-0.3-0.3-0.7-0.3-1,0l-4,4c-0.3,0.3-0.3,0.7,0,1c0,0,0,0,0,0l4,4
				c0.3,0.3,0.7,0.3,1,0s0.3-0.7,0-1L1.7,4.7L5.2,1.2z"/>
		</g>
	</g>
</g>
</svg>
